<?xml version="1.0" encoding="UTF-8"?>
<svg version="1.1" xmlns="http://www.w3.org/2000/svg" width="140" height="37">
<path d="M0 0 C2.25130853 0.91457707 3.47372538 1.90223491 5.18212891 3.62060547 C5.74673828 4.18585937 6.31134766 4.75111328 6.89306641 5.33349609 C7.47056641 5.92710937 8.04806641 6.52072266 8.64306641 7.13232422 C9.22830078 7.71433594 9.81353516 8.29634766 10.41650391 8.89599609 C14.66999213 13.2031407 17.29537879 16.42327923 17.39306641 22.69482422 C17.27284011 27.49680378 16.41638802 30.2472297 13.01806641 33.81982422 C6.4463126 38.01456069 -1.73121035 37.91182905 -9.23583984 36.35107422 C-12.32408154 35.23050272 -14.16895076 33.62321643 -16.41943359 31.25732422 C-18.46648983 26.7538005 -18.99114671 22.68779337 -17.98193359 17.81982422 C-15.27398938 13.06176186 -11.80428619 9.24725252 -7.98193359 5.38232422 C-7.46115234 4.82867187 -6.94037109 4.27501953 -6.40380859 3.70458984 C-2.52368359 -0.22942578 -2.52368359 -0.22942578 0 0 Z M-0.98193359 7.81982422 C-2.44335619 9.25418343 -3.90096408 10.69243008 -5.35693359 12.13232422 C-6.16904297 12.93283203 -6.98115234 13.73333984 -7.81787109 14.55810547 C-10.58136646 17.44630731 -11.94751249 18.94208608 -12.10693359 23.00732422 C-12.06568359 23.93544922 -12.02443359 24.86357422 -11.98193359 25.81982422 C-11.32193359 26.14982422 -10.66193359 26.47982422 -9.98193359 26.81982422 C-9.71380859 25.89169922 -9.44568359 24.96357422 -9.16943359 24.00732422 C-8.03712938 20.96798133 -7.28292849 19.91908805 -4.98193359 17.81982422 C-4.81757813 18.75955078 -4.81757813 18.75955078 -4.64990234 19.71826172 C-4.49134766 20.53552734 -4.33279297 21.35279297 -4.16943359 22.19482422 C-3.94320313 23.41298828 -3.94320313 23.41298828 -3.71240234 24.65576172 C-3.10648418 27.17803063 -3.10648418 27.17803063 0.01806641 28.81982422 C3.16765471 25.39635867 3.5798575 22.37719685 4.01806641 17.81982422 C7.27226791 20.65412875 8.53874171 22.50590195 9.01806641 26.81982422 C9.67806641 26.48982422 10.33806641 26.15982422 11.01806641 25.81982422 C11.40015105 22.03220253 11.35019938 20.30166073 9.15478516 17.11669922 C8.34654297 16.27623047 7.53830078 15.43576172 6.70556641 14.56982422 C5.90505859 13.71904297 5.10455078 12.86826172 4.27978516 11.99169922 C2.01946531 9.69349465 2.01946531 9.69349465 -0.98193359 7.81982422 Z " fill="#2EAA72" transform="translate(17.98193359375,0.18017578125)"/>
<path d="M0 0 C2.88575819 0.39803561 3.82189513 0.79009069 5.75 3.0625 C6.36875 4.0215625 6.36875 4.0215625 7 5 C7.33 3.35 7.66 1.7 8 0 C9.32 0 10.64 0 12 0 C12 4.62 12 9.24 12 14 C9.525 13.505 9.525 13.505 7 13 C6.34 12.01 5.68 11.02 5 10 C4.67 11.32 4.34 12.64 4 14 C2.68 14 1.36 14 0 14 C0 11.69 0 9.38 0 7 C-0.99 7.33 -1.98 7.66 -3 8 C-3.33 9.98 -3.66 11.96 -4 14 C-4.99 14 -5.98 14 -7 14 C-7 10.7 -7 7.4 -7 4 C-4.69 4 -2.38 4 0 4 C0 2.68 0 1.36 0 0 Z " fill="#0A1229" transform="translate(104,12)"/>
<path d="M0 0 C1.23556641 0.01740234 1.23556641 0.01740234 2.49609375 0.03515625 C3.32238281 0.04417969 4.14867188 0.05320312 5 0.0625 C5.63808594 0.07410156 6.27617188 0.08570313 6.93359375 0.09765625 C6.93359375 1.41765625 6.93359375 2.73765625 6.93359375 4.09765625 C4.95359375 4.09765625 2.97359375 4.09765625 0.93359375 4.09765625 C0.93359375 4.75765625 0.93359375 5.41765625 0.93359375 6.09765625 C2.91359375 6.09765625 4.89359375 6.09765625 6.93359375 6.09765625 C6.93359375 7.08765625 6.93359375 8.07765625 6.93359375 9.09765625 C4.95359375 9.09765625 2.97359375 9.09765625 0.93359375 9.09765625 C0.93359375 9.75765625 0.93359375 10.41765625 0.93359375 11.09765625 C2.91359375 11.09765625 4.89359375 11.09765625 6.93359375 11.09765625 C6.93359375 12.08765625 6.93359375 13.07765625 6.93359375 14.09765625 C3.63359375 14.09765625 0.33359375 14.09765625 -3.06640625 14.09765625 C-3.09326563 11.95188988 -3.11273713 9.8060298 -3.12890625 7.66015625 C-3.14050781 6.46519531 -3.15210937 5.27023438 -3.1640625 4.0390625 C-3.03472503 0.14341801 -3.03472503 0.14341801 0 0 Z " fill="#0A1229" transform="translate(120.06640625,11.90234375)"/>
<path d="M0 0 C6.8359375 -0.29296875 6.8359375 -0.29296875 9 0 C11 3 11 3 10.75 6.0625 C10 9 10 9 8 11 C7.01 11 6.02 11 5 11 C4.67 11.99 4.34 12.98 4 14 C2.68 14 1.36 14 0 14 C0 9.38 0 4.76 0 0 Z M4 3 C4.33 4.65 4.66 6.3 5 8 C5.66 7.67 6.32 7.34 7 7 C7 5.68 7 4.36 7 3 C6.01 3 5.02 3 4 3 Z " fill="#0A1229" transform="translate(63,16)"/>
<path d="M0 0 C2.875 0.875 2.875 0.875 4.875 2.875 C4.875 3.865 4.875 4.855 4.875 5.875 C2.20833333 5.20833333 -0.45833333 4.54166667 -3.125 3.875 C-3.125 6.185 -3.125 8.495 -3.125 10.875 C-1.9803125 10.38 -1.9803125 10.38 -0.8125 9.875 C1.875 8.875 1.875 8.875 4.875 8.875 C4.5625 10.75 4.5625 10.75 3.875 12.875 C0.875 14.875 0.875 14.875 -2.1875 14.6875 C-5.125 13.875 -5.125 13.875 -7.125 10.875 C-7.55435896 6.9392095 -7.68401466 4.73502255 -5.5 1.375 C-3.125 -0.125 -3.125 -0.125 0 0 Z " fill="#0A1229" transform="translate(52.125,12.125)"/>
<path d="M0 0 C0.99 0 1.98 0 3 0 C3 1.32 3 2.64 3 4 C4.98 4 6.96 4 9 4 C10.60725635 7.21451269 10.05748185 10.43612536 10 14 C8.68 14 7.36 14 6 14 C6 11.69 6 9.38 6 7 C5.01 7.495 5.01 7.495 4 8 C3.34227572 11.02934491 3.34227572 11.02934491 3 14 C2.01 14 1.02 14 0 14 C0 9.38 0 4.76 0 0 Z " fill="#0A1229" transform="translate(75,12)"/>
<path d="M0 0 C3.63 0 7.26 0 11 0 C11 1.32 11 2.64 11 4 C10.01 4 9.02 4 8 4 C8 7.3 8 10.6 8 14 C6.68 14 5.36 14 4 14 C4 10.7 4 7.4 4 4 C2.68 4 1.36 4 0 4 C0 2.68 0 1.36 0 0 Z " fill="#0A1229" transform="translate(128,12)"/>
<path d="M0 0 C0.99 0.103125 1.98 0.20625 3 0.3125 C5 3.3125 5 3.3125 5 6.3125 C3.68 6.6425 2.36 6.9725 1 7.3125 C2.32 7.6425 3.64 7.9725 5 8.3125 C3.875 9.875 3.875 9.875 2 11.3125 C-3.43478261 10.87771739 -3.43478261 10.87771739 -5 9.3125 C-5.1875 5.875 -5.1875 5.875 -5 2.3125 C-3 0.3125 -3 0.3125 0 0 Z " fill="#0A1229" transform="translate(91,15.6875)"/>
<path d="M0 0 C1.32 0 2.64 0 4 0 C4 3.3 4 6.6 4 10 C2.68 10 1.36 10 0 10 C0 6.7 0 3.4 0 0 Z " fill="#0A1229" transform="translate(58,16)"/>
<path d="M0 0 C0.99 0 1.98 0 3 0 C3 0.99 3 1.98 3 3 C1.68 2.67 0.36 2.34 -1 2 C-0.67 1.34 -0.34 0.68 0 0 Z " fill="#0A1228" transform="translate(59,12)"/>
</svg>
