<?xml version="1.0" standalone="no"?>
<!DOCTYPE svg PUBLIC "-//W3C//DTD SVG 20010904//EN"
 "http://www.w3.org/TR/2001/REC-SVG-20010904/DTD/svg10.dtd">
<svg version="1.0" xmlns="http://www.w3.org/2000/svg"
 width="140.000000pt" height="37.000000pt" viewBox="0 0 140.000000 37.000000"
 preserveAspectRatio="xMidYMid meet">

<g transform="translate(0.000000,37.000000) scale(0.100000,-0.100000)"
fill="#000000" stroke="none">
<path d="M595 239 c-10 -15 3 -25 16 -12 7 7 7 13 1 17 -6 3 -14 1 -17 -5z"/>
<path d="M466 218 c-48 -68 35 -148 89 -88 20 22 6 27 -24 8 -39 -24 -72 42
-36 72 13 11 20 11 40 0 31 -16 42 -8 20 14 -24 24 -71 20 -89 -6z"/>
<path d="M750 175 c0 -51 3 -65 15 -65 10 0 15 10 15 34 0 38 17 57 31 35 5
-8 9 -26 9 -41 0 -16 5 -28 11 -28 6 0 9 19 7 48 -3 44 -5 47 -30 47 -20 -1
-28 4 -28 17 0 10 -7 18 -15 18 -12 0 -15 -14 -15 -65z"/>
<path d="M1050 175 c0 -72 17 -90 22 -23 l3 42 28 -42 c15 -23 32 -42 37 -42
6 0 10 29 10 65 0 37 -4 65 -10 65 -5 0 -10 -19 -10 -42 l0 -42 -31 42 c-17
23 -35 42 -40 42 -5 0 -9 -29 -9 -65z"/>
<path d="M1180 175 l0 -65 45 0 c25 0 45 5 45 10 0 6 -13 10 -30 10 -20 0 -30
5 -30 15 0 9 9 15 25 15 16 0 25 6 25 15 0 9 -9 15 -25 15 -16 0 -25 6 -25 15
0 10 10 15 30 15 17 0 30 5 30 10 0 6 -20 10 -45 10 l-45 0 0 -65z"/>
<path d="M1280 230 c0 -5 9 -10 20 -10 18 0 20 -7 20 -55 0 -42 3 -55 15 -55
12 0 15 13 15 55 0 48 2 55 20 55 11 0 20 5 20 10 0 6 -25 10 -55 10 -30 0
-55 -4 -55 -10z"/>
<path d="M590 160 c0 -38 4 -50 15 -50 11 0 15 12 15 50 0 38 -4 50 -15 50
-11 0 -15 -12 -15 -50z"/>
<path d="M640 138 c0 -39 4 -68 10 -68 6 0 10 12 10 26 0 21 3 24 20 19 28 -9
50 11 50 45 0 34 -16 47 -57 47 l-33 0 0 -69z m64 37 c7 -20 -3 -45 -19 -45
-18 0 -27 30 -14 46 15 18 25 18 33 -1z"/>
<path d="M876 194 c-42 -41 1 -100 58 -78 28 11 17 24 -14 18 -19 -4 -30 -2
-30 5 0 6 14 11 30 11 22 0 30 5 30 18 0 39 -45 55 -74 26z m49 -14 c3 -5 -3
-10 -15 -10 -12 0 -18 5 -15 10 3 6 10 10 15 10 5 0 12 -4 15 -10z"/>
<path d="M970 159 c0 -37 4 -49 15 -49 11 0 15 11 15 35 0 22 6 38 15 41 25
10 17 21 -15 22 -29 1 -30 0 -30 -49z"/>
</g>
</svg>
