<svg xmlns="http://www.w3.org/2000/svg" version="1.1" xmlns:xlink="http://www.w3.org/1999/xlink" xmlns:svgjs="http://svgjs.dev/svgjs" width="1500" height="321" viewBox="0 0 1500 321"><g transform="matrix(1,0,0,1,-0.9090909090909918,-0.697171470030014)"><svg viewBox="0 0 396 85" data-background-color="#ffffff" preserveAspectRatio="xMidYMid meet" height="321" width="1500" xmlns="http://www.w3.org/2000/svg" xmlns:xlink="http://www.w3.org/1999/xlink"><g id="tight-bounds" transform="matrix(1,0,0,1,0.2400000000000091,0.18460926776495512)"><svg viewBox="0 0 395.52 84.63078146447009" height="84.63078146447009" width="395.52"><g><svg viewBox="0 0 550.1084515721775 117.70860676264914" height="84.63078146447009" width="395.52"><g transform="matrix(1,0,0,1,154.58845157217746,16.267976766762658)"><svg viewBox="0 0 395.52 85.17265322912382" height="85.17265322912382" width="395.52"><g id="textblocktransform"><svg viewBox="0 0 395.52 85.17265322912382" height="85.17265322912382" width="395.52" id="textblock"><g><svg viewBox="0 0 395.52 85.17265322912382" height="85.17265322912382" width="395.52"><g transform="matrix(1,0,0,1,0,0)"><svg width="395.52" viewBox="1.95 -40 243.08 52.35" height="85.17265322912382" data-palette-color="#000000"><path d="M20.55 0.5L20.55 0.5Q14.9 0.5 10.7-1.78 6.5-4.05 4.23-8 1.95-11.95 1.95-17L1.95-17Q1.95-20.8 3.33-24.15 4.7-27.5 7.28-30.05 9.85-32.6 13.45-34.05 17.05-35.5 21.45-35.5L21.45-35.5Q24.65-35.5 27.48-34.88 30.3-34.25 33.45-32.7L33.45-32.7 33.45-26 31.95-26Q31-29.85 27.88-31.63 24.75-33.4 20.65-33.4L20.65-33.4Q16.3-33.4 13.25-31.4 10.2-29.4 8.6-26 7-22.6 7-18.3L7-18.3Q7-15.25 7.93-12.28 8.85-9.3 10.65-6.88 12.45-4.45 15.1-3.03 17.75-1.6 21.25-1.6L21.25-1.6Q23.75-1.6 25.65-2.15 27.55-2.7 28.98-4.53 30.4-6.35 31.45-10.05L31.45-10.05 32.95-10.05 32.95-2.1Q29.4-0.7 26.3-0.1 23.2 0.5 20.55 0.5ZM49.05 0L36.55 0 36.55-1.5 38.05-1.75Q39.55-2 40.05-2.58 40.55-3.15 40.55-4.7L40.55-4.7 40.55-19.6Q40.55-21.2 39.85-21.88 39.15-22.55 36.65-22.85L36.65-22.85 36.65-24.1 44.35-26.3 45.05-26.3 45.05-4.7Q45.05-3.15 45.55-2.58 46.05-2 47.55-1.75L47.55-1.75 49.05-1.5 49.05 0ZM42.3-30.15L42.3-30.15Q41.05-30.15 40.2-30.98 39.35-31.8 39.35-33.1L39.35-33.1Q39.35-34.4 40.2-35.2 41.05-36 42.3-36L42.3-36Q43.5-36 44.35-35.2 45.2-34.4 45.2-33.1L45.2-33.1Q45.2-31.8 44.35-30.98 43.5-30.15 42.3-30.15ZM63.9 12.35L50.4 12.35 50.4 10.85 51.9 10.6Q53.45 10.35 53.92 9.78 54.4 9.2 54.4 7.65L54.4 7.65 54.4-19.6Q54.4-21.2 53.7-21.88 53-22.55 50.5-22.85L50.5-22.85 50.5-24.1 58.05-26.3 58.75-26.3 58.75-22.65 59.05-22.65Q60.45-24 61.8-24.85 63.15-25.7 64.55-26.1 65.95-26.5 67.55-26.5L67.55-26.5Q71-26.5 73.62-24.88 76.25-23.25 77.72-20.4 79.2-17.55 79.2-13.75L79.2-13.75Q79.2-9.6 77.37-6.38 75.55-3.15 72.4-1.33 69.25 0.5 65.25 0.5L65.25 0.5Q63.55 0.5 61.95 0.13 60.35-0.25 58.9-0.95L58.9-0.95 58.9 7.15Q58.9 8.85 59.5 9.6 60.1 10.35 61.65 10.55L61.65 10.55 63.9 10.85 63.9 12.35ZM66-1.4L66-1.4Q70-1.4 72.25-4.13 74.5-6.85 74.5-11.8L74.5-11.8Q74.5-15.25 73.42-17.82 72.35-20.4 70.35-21.83 68.35-23.25 65.55-23.25L65.55-23.25Q63.7-23.25 62-22.6 60.3-21.95 58.9-20.65L58.9-20.65 58.9-9.15Q58.9-6.75 59.7-5.03 60.5-3.3 62.07-2.35 63.65-1.4 66-1.4ZM94.19 0L81.69 0 81.69-1.5 83.19-1.75Q84.69-2 85.19-2.58 85.69-3.15 85.69-4.7L85.69-4.7 85.69-33.3Q85.69-34.9 84.99-35.58 84.29-36.25 81.79-36.55L81.79-36.55 81.79-37.8 89.49-40 90.19-40 90.19-22.8 90.49-22.8Q92.04-24.15 93.39-24.95 94.74-25.75 96.22-26.13 97.69-26.5 99.59-26.5L99.59-26.5Q103.14-26.5 105.17-24.73 107.19-22.95 107.19-19.7L107.19-19.7 107.19-4.7Q107.19-3.15 107.69-2.58 108.19-2 109.69-1.75L109.69-1.75 111.19-1.5 111.19 0 98.69 0 98.69-1.5 100.19-1.75Q101.69-2 102.19-2.58 102.69-3.15 102.69-4.7L102.69-4.7 102.69-18.2Q102.69-20.05 102.04-21.2 101.39-22.35 100.12-22.93 98.84-23.5 96.84-23.5L96.84-23.5Q94.89-23.5 93.34-22.83 91.79-22.15 90.19-20.7L90.19-20.7 90.19-4.7Q90.19-3.15 90.69-2.58 91.19-2 92.69-1.75L92.69-1.75 94.19-1.5 94.19 0ZM125.94 0.5L125.94 0.5Q122.24 0.5 119.44-1.23 116.64-2.95 115.12-5.9 113.59-8.85 113.59-12.55L113.59-12.55Q113.59-16.6 115.37-19.75 117.14-22.9 120.14-24.7 123.14-26.5 126.74-26.5L126.74-26.5Q130.69-26.5 133.09-24.25 135.49-22 135.49-17.7L135.49-17.7Q135.49-17.4 135.49-17.07 135.49-16.75 135.39-16.2L135.39-16.2 135.29-15.5 117.34-15.5 117.34-17.4 130.54-17.4Q130.69-18.4 130.69-19.25L130.69-19.25Q130.69-21.75 129.39-23.15 128.09-24.55 125.64-24.55L125.64-24.55Q122.29-24.55 120.22-21.9 118.14-19.25 118.14-14.8L118.14-14.8Q118.14-11.45 119.37-8.78 120.59-6.1 122.87-4.58 125.14-3.05 128.24-3.05L128.24-3.05Q129.99-3.05 131.64-3.65 133.29-4.25 135.14-5.65L135.14-5.65 136.14-4.7Q133.74-1.95 131.29-0.73 128.84 0.5 125.94 0.5ZM152.24 0L138.74 0 138.74-1.5 140.24-1.75Q141.79-2 142.26-2.58 142.74-3.15 142.74-4.7L142.74-4.7 142.74-19.6Q142.74-21.3 141.96-21.93 141.19-22.55 138.84-22.85L138.84-22.85 138.84-24.1 146.39-26.3 147.09-26.3 147.09-22.3 147.54-22.3Q148.79-24.1 150.61-25.25 152.44-26.4 154.79-26.4L154.79-26.4Q156.59-26.4 157.51-25.65 158.44-24.9 158.44-23.7L158.44-23.7Q158.44-22.9 157.81-22.25 157.19-21.6 156.34-21.38 155.49-21.15 154.69-21.6L154.69-21.6 152.29-23Q151.69-23.35 150.84-22.9 149.99-22.45 149.16-21.73 148.34-21 147.79-20.33 147.24-19.65 147.24-19.55L147.24-19.55 147.24-4.7Q147.24-3.15 147.74-2.58 148.24-2 149.74-1.8L149.74-1.8 152.24-1.5 152.24 0ZM193.29 0.4L191.89 0.4 166.99-29.55Q167.04-26.9 167.06-24.38 167.09-21.85 167.14-19.1 167.19-16.35 167.21-13.03 167.24-9.7 167.24-5.4L167.24-5.4Q167.24-3.95 167.56-3.15 167.89-2.35 168.76-2 169.64-1.65 171.19-1.55L171.19-1.55 172.24-1.5 172.24 0 160.34 0 160.34-1.5 161.39-1.6Q162.79-1.75 163.54-2.13 164.29-2.5 164.56-3.28 164.84-4.05 164.84-5.4L164.84-5.4 164.99-29.6Q164.99-31.65 164.21-32.43 163.44-33.2 161.14-33.4L161.14-33.4 160.09-33.5 160.09-35 168.44-35 191.24-7.65Q191.19-11.05 191.14-13.65 191.09-16.25 191.06-18.57 191.04-20.9 191.04-23.4 191.04-25.9 191.04-29.1L191.04-29.1Q191.04-30.8 190.71-31.7 190.39-32.6 189.54-33 188.69-33.4 187.09-33.45L187.09-33.45 186.04-33.5 186.04-35 197.94-35 197.94-33.5 196.89-33.4Q195.49-33.25 194.74-32.88 193.99-32.5 193.71-31.63 193.44-30.75 193.44-29.1L193.44-29.1 193.29 0.4ZM213.48 0.5L213.48 0.5Q209.78 0.5 206.98-1.23 204.18-2.95 202.66-5.9 201.13-8.85 201.13-12.55L201.13-12.55Q201.13-16.6 202.91-19.75 204.68-22.9 207.68-24.7 210.68-26.5 214.28-26.5L214.28-26.5Q218.23-26.5 220.63-24.25 223.03-22 223.03-17.7L223.03-17.7Q223.03-17.4 223.03-17.07 223.03-16.75 222.93-16.2L222.93-16.2 222.83-15.5 204.88-15.5 204.88-17.4 218.08-17.4Q218.23-18.4 218.23-19.25L218.23-19.25Q218.23-21.75 216.93-23.15 215.63-24.55 213.18-24.55L213.18-24.55Q209.83-24.55 207.76-21.9 205.68-19.25 205.68-14.8L205.68-14.8Q205.68-11.45 206.91-8.78 208.13-6.1 210.41-4.58 212.68-3.05 215.78-3.05L215.78-3.05Q217.53-3.05 219.18-3.65 220.83-4.25 222.68-5.65L222.68-5.65 223.68-4.7Q221.28-1.95 218.83-0.73 216.38 0.5 213.48 0.5ZM236.23 0.5L236.23 0.5Q233.13 0.5 231.28-1.1 229.43-2.7 229.43-6.3L229.43-6.3 229.43-23 226.28-23 226.28-24.5Q230.18-26.65 232.48-30.2L232.48-30.2 233.98-30.2 233.98-26.1 233.98-24.65 233.98-7.65Q233.98-5.7 234.63-4.7 235.28-3.7 236.41-3.38 237.53-3.05 238.83-3.05L238.83-3.05Q240.53-3.05 241.78-3.55 243.03-4.05 244.13-4.7L244.13-4.7 245.03-3.65Q243.48-2.05 241.28-0.78 239.08 0.5 236.23 0.5ZM243.13-23L231.78-23 231.78-26 244.43-26 244.43-25.25 243.13-23Z" opacity="1" transform="matrix(1,0,0,1,0,0)" fill="#000000" class="wordmark-text-0" data-fill-palette-color="primary" id="text-0"></path></svg></g></svg></g></svg></g></svg></g><g><svg viewBox="0 0 134.48123228845884 117.70860676264914" height="117.70860676264914" width="134.48123228845884"><g><svg xmlns:x="http://ns.adobe.com/Extensibility/1.0/" xmlns:i="http://ns.adobe.com/AdobeIllustrator/10.0/" xmlns:graph="http://ns.adobe.com/Graphs/1.0/" xmlns="http://www.w3.org/2000/svg" xmlns:xlink="http://www.w3.org/1999/xlink" version="1.1" x="8" y="0" viewBox="3.289558878687709 3.5 93.6104411213123 93" enable-background="new 0 0 100 100" xml:space="preserve" height="117.70860676264914" width="118.48123228845883" class="icon-icon-0" data-fill-palette-color="accent" id="icon-0"><path d="M9.1 39.1h14v3.6h-4.1c-1.4 0-2.5 1.1-2.5 2.5s1.1 2.5 2.5 2.5h13.3c1.4 0 2.5-1.1 2.5-2.5s-1.1-2.5-2.5-2.5h-4.1v-3.6h14c3.3 0 5.9-2.7 5.9-5.9V9.4c0-3.3-2.7-5.9-5.9-5.9h-33c-3.3 0-5.9 2.7-5.9 5.9v23.7C3.1 36.4 5.8 39.1 9.1 39.1zM8.1 9.4c0-0.5 0.4-0.9 0.9-0.9h33c0.5 0 0.9 0.4 0.9 0.9v23.7c0 0.5-0.4 0.9-0.9 0.9h-33c-0.5 0-0.9-0.4-0.9-0.9V9.4zM57.9 87.9h14v3.6h-4.1c-1.4 0-2.5 1.1-2.5 2.5s1.1 2.5 2.5 2.5h13.3c1.4 0 2.5-1.1 2.5-2.5s-1.1-2.5-2.5-2.5h-4.1v-3.6h14c3.3 0 5.9-2.7 5.9-5.9V58.3c0-3.3-2.7-5.9-5.9-5.9h-33c-3.3 0-5.9 2.7-5.9 5.9V82C52 85.3 54.6 87.9 57.9 87.9zM57 58.3c0-0.5 0.4-0.9 0.9-0.9h33c0.5 0 0.9 0.4 0.9 0.9V82c0 0.5-0.4 0.9-0.9 0.9h-33c-0.5 0-0.9-0.4-0.9-0.9V58.3zM53.8 21.3c0-1.4 1.1-2.5 2.5-2.5h18.1c1.4 0 2.5 1.1 2.5 2.5v18.2l1.7-1.7c1-1 2.6-1 3.5 0 1 1 1 2.6 0 3.5l-6 6c-0.5 0.5-1.1 0.7-1.8 0.7s-1.3-0.2-1.8-0.7l-6-6c-1-1-1-2.6 0-3.5 1-1 2.6-1 3.5 0l1.7 1.7V23.8H56.3C54.9 23.8 53.8 22.7 53.8 21.3zM28.1 61.5v15.7h15.6c1.4 0 2.5 1.1 2.5 2.5s-1.1 2.5-2.5 2.5H25.6c-1.4 0-2.5-1.1-2.5-2.5V61.5l-1.7 1.7c-1 1-2.6 1-3.5 0-1-1-1-2.6 0-3.5l6-6c1-1 2.6-1 3.5 0l6 6c1 1 1 2.6 0 3.5-0.5 0.5-1.1 0.7-1.8 0.7s-1.3-0.2-1.8-0.7L28.1 61.5z" fill="#2fab73" data-fill-palette-color="accent"></path></svg><g></g></g></svg></g></svg></g><defs></defs></svg><rect width="395.52" height="84.63078146447009" fill="none" stroke="none" visibility="hidden"></rect></g></svg></g></svg>